<?xml version="1.0" encoding="utf-8"?>
<!-- Generator: Adobe Illustrator 27.7.0, SVG Export Plug-In . SVG Version: 6.00 Build 0)  -->
<svg version="1.1" id="Layer_1" xmlns="http://www.w3.org/2000/svg" xmlns:xlink="http://www.w3.org/1999/xlink" x="0px" y="0px"
	 viewBox="0 0 520.73 217.14" style="enable-background:new 0 0 520.73 217.14;" xml:space="preserve">
<style type="text/css">
	.st0{fill:#C4161C;}
</style>
<g>
	<path class="st0" d="M401.76,49.73l-20.73,47.43c-3.88,7.43-8.98,13.21-14.73,13.57c-3.39,0.21-3.72-2.78-2.95-6.13
		c0.27-1.17,0.72-2.49,1.28-3.67l21.95-50.23l-21.22,1.34l-20.73,47.43c-0.86,1.97-1.6,3.85-2.2,5.61
		c-3.69,4.54-8.29,7.7-12.46,7.96c-4.13,0.26-5.74-0.93-4.81-5.01c0.3-1.31,0.78-2.78,1.66-4.7l34.97-79.79l-22.48,4.29
		l-32.49,74.03c-0.86,1.97-1.6,3.85-2.2,5.6c-3.69,4.54-8.29,7.7-12.46,7.96c-4.13,0.26-5.74-0.93-4.81-5.01
		c0.3-1.31,0.78-2.78,1.66-4.7l34.97-79.79l-22.48,4.29L269,104.22c-0.99,2.28-1.83,4.43-2.47,6.42c-3.26,4.43-7.09,7.69-11.06,7.94
		c-4.13,0.26-5.54-1.81-4.61-5.89c0.3-1.31,0.78-2.78,1.66-4.7l21.96-50.23l-21.23,1.34l-3.39,7.83l0.23-1.02
		c0.97-4.23-1.84-7.21-10.24-6.68c-25.65,1.62-45.06,33.73-49.56,53.41c-3.97,17.35,4.21,22.87,14.23,22.23
		c10.47-0.66,18.93-7.8,25.03-14.79c-1.12,8.69,3.12,13.02,11.38,12.5c5.68-0.36,14.43-2.52,24.01-12.55
		c0.22,7.65,5.33,10.7,12.48,10.25c5.73-0.36,15.27-2.6,25.33-12.88c0.12,7.82,5.26,10.95,12.48,10.49
		c5.73-0.36,15.27-2.6,25.33-12.88c0.12,7.83,5.26,10.95,12.48,10.5c5.01-0.32,11.94-2.05,19.92-9.59l-7.83,17.57
		c-14.94,4.96-27.4,9.92-30.5,23.47c-2.17,9.47,4.8,15.21,13.79,14.65c9.73-0.61,23.28-5.36,32.5-26.47l42.22-96.74L401.76,49.73z
		 M247.13,73.13l-14.62,33.39c-3.7,8.57-10.9,13.33-15.17,13.6c-2.65,0.17-7.34,0.32-4.77-10.91c3.14-13.7,17.25-40.45,29.78-41.24
		C247.07,67.67,247.53,71.38,247.13,73.13z M359.29,146.92c-3.75,8.75-8.35,11.73-11.3,11.92c-3.24,0.2-5.26-2.4-4.79-4.44
		c1.8-7.87,9.84-12.55,19.83-16.19L359.29,146.92z"/>
	<path class="st0" d="M432.07,50.47c10.19-6.46,17.23-14.7,18.61-20.73c1-4.41-0.95-7.42-5.74-7.01c-4.8,0.42-9.39,4.46-10.39,8.87
		c-0.74,3.25,0.95,5.38,3.48,6.86c0.8,0.5,1.11,1.15,0.95,1.85l-7.59,8.62C431.25,49.51,431.35,50.07,432.07,50.47z"/>
	<path class="st0" d="M91.16,90c-19.33-13.41-5.73-39.45,19.52-48.22L87.9,141.36l21.67-1.37l46.17-76.04l-16.98,74.2l21.82-1.38
		L226.4,25.58l-10.32,0.65l-52.11,91.21l20.42-89.21l-19.31,1.22l-51.37,91.17l19.19-89.57c-1.88-0.02-3.76-0.07-5.83,0.08
		C70.41,35.19,38.89,86.53,91.16,90z"/>
	<path class="st0" d="M337.86,141.43c-116.16,4.35-268.9,1.9-309.35,52.64c38.57-13.69,72.26-11.41,98.28,0.38
		c9.2-15.62,19.78-19.46,45.02-25.6c40.84-9.94,101.67-12.98,157.76-15.75C331.31,148.23,334.23,144.46,337.86,141.43z"/>
	<path class="st0" d="M464.73,96.33c2.11-9.42,1.07-12.17,7.87-49.55l-21.55,1.78c-7.85,14.78-16.45,32.13-28.03,47.4l-0.72,0.36
		c-1.56,0.67-3,1.47-4.27,2.44c-2.42,1.71-4.5,4.14-5.83,8.68c-2.59,8.82,2.09,18.66,17.15,17.27c10.98-1.02,27.5-7.62,33.73-23.04
		c3.56,0.9,6.71,1.92,9.13,2.97c16.28,8.02,15.86,23.3-59.62,32.03c-7.13,0.82-14.7,1.52-22.62,2.13l-4.95,11.35l-0.03,0.08
		c20.16-1.33,38.26-2.96,52.7-5.33c33.71-5.53,43.98-10.08,50.79-17.49C498.11,116.92,488.77,102.25,464.73,96.33z M443.21,98.76
		c-2.34,10.26-9.46,14.21-15.95,14.82c-3.91,0.36-6.1-0.63-6.88-2.99c-1.73-9.66,9.75-12.4,22.84-11.85L443.21,98.76z M444.17,93.69
		c-4.69-0.25-9.26-0.17-13.43,0.41l-0.79,0.06c6.65-9.49,13.54-20.62,18.38-29.87C445.51,81.5,445.03,88.11,444.17,93.69z"/>
</g>
</svg>
